<?xml version="1.0" encoding="UTF-8" standalone="no"?>
<svg xmlns="http://www.w3.org/2000/svg" viewBox="360 280 660 440">
  <!-- Same icon as maseminer-logo.svg, no wordmark.  Header chrome
       renders the "MASEMiner" h1 alongside this mark. -->
  <g fill="#003d7c">
    <rect x="373" y="292" width="74" height="74" rx="4"/>
    <rect x="707" y="293" width="75" height="75" rx="4"/>
    <rect x="374" y="378" width="72" height="71" rx="4"/>
    <rect x="459" y="378" width="71" height="71" rx="4"/>
    <rect x="625" y="378" width="70" height="72" rx="4"/>
    <rect x="708" y="379" width="72" height="71" rx="4"/>
    <rect x="374" y="462" width="72" height="72" rx="4"/>
    <rect x="543" y="462" width="70" height="71" rx="4"/>
    <rect x="625" y="462" width="70" height="71" rx="4"/>
    <rect x="374" y="547" width="72" height="71" rx="4"/>
    <rect x="579" y="547" width="72" height="71" rx="4"/>
    <rect x="374" y="631" width="72" height="72" rx="4"/>
    <rect x="709" y="462" width="71" height="71" rx="4"/>
    <rect x="709" y="546" width="72" height="72" rx="4"/>
    <rect x="709" y="631" width="72" height="72" rx="4"/>
  </g>
  <g fill="#72879d">
    <rect x="460" y="462" width="70" height="71" rx="4"/>
    <rect x="459" y="546" width="71" height="72" rx="4"/>
    <rect x="459" y="631" width="71" height="73" rx="4"/>
    <rect x="794.66" y="460.93" width="71" height="71" rx="4"/>
    <rect x="794.66" y="544.93" width="71" height="72" rx="4"/>
    <rect x="794.66" y="629.93" width="71" height="72" rx="4"/>
  </g>
  <rect x="910" y="291.87" width="73" height="73" rx="4" fill="#19b3b0"/>
  <path d="m 828.71323,420.2301 c 44.99672,-36.19281 15.49703,-70.90814 81.34589,-90.55567"
        fill="none" stroke="#19b3b0" stroke-width="6.39185"
        stroke-linecap="round" stroke-dasharray="18, 18"/>
</svg>
